<?xml version="1.0" encoding="utf-8"?>
<!-- Generator: Adobe Illustrator 16.0.4, SVG Export Plug-In . SVG Version: 6.00 Build 0)  -->
<!DOCTYPE svg PUBLIC "-//W3C//DTD SVG 1.1//EN" "http://www.w3.org/Graphics/SVG/1.1/DTD/svg11.dtd">
<svg version="1.1" id="Calque_1" xmlns="http://www.w3.org/2000/svg" xmlns:xlink="http://www.w3.org/1999/xlink" x="0px" y="0px"
	 width="841.889px" height="360px" viewBox="0 111.14 841.889 360" enable-background="new 0 111.14 841.889 360"
	 xml:space="preserve">
<text transform="matrix(1 0 0 1 5.9368 371.3884)"><tspan x="0" y="0" fill="#444443" font-family="'NexaRustSans-Black'" font-size="122.5813">Cani</tspan><tspan x="342.611" y="0" fill="#ABC80F" font-family="'GabrielWeissFriendsFont'" font-size="122.5813">Seniors</tspan></text>
<g>
	<g>
		<path fill="#444443" d="M440.805,178.622c-11.121,0-20.164-11.83-20.164-26.362c0-14.532,9.043-26.349,20.164-26.349
			s20.162,11.817,20.162,26.349C460.967,166.793,451.926,178.622,440.805,178.622L440.805,178.622z M440.805,130.051"/>
		<path fill="#444443" d="M475.519,212.116c-10.475,0-18.689-10.576-18.689-24.069c0-13.503,8.215-24.079,18.689-24.079
			c10.476,0,18.68,10.575,18.68,24.079C494.198,201.54,485.994,212.116,475.519,212.116L475.519,212.116z M475.519,168.105"/>
		<path fill="#444443" d="M395.219,178.622c-11.11,0-20.162-11.83-20.162-26.362c0-14.532,9.052-26.349,20.162-26.349
			c11.121,0,20.173,11.817,20.173,26.349C415.393,166.793,406.341,178.622,395.219,178.622L395.219,178.622z M395.219,130.051"/>
		<path fill="#444443" d="M447.626,254.662c-5.44,0-10.132-3.088-15.107-6.357c-2.997-1.978-6.055-3.986-9.445-5.5
			c-0.484-0.111-2.493-0.353-5.49-0.353c-2.735,0-4.088,0.202-4.309,0.252c-3.351,1.403-6.6,3.401-9.749,5.338
			c-5.389,3.32-10.001,6.156-15.379,6.156c-2.726,0-5.319-0.777-7.7-2.311c-5.663-3.634-8.972-9.941-9.335-17.762
			c-0.331-7.125,1.888-14.794,6.257-21.586c0.454-0.707,0.949-1.322,1.473-1.938c0.202-0.243,0.576-0.696,0.667-0.858
			c5.157-10.596,18.014-21.94,38.621-21.94h0.777c20.92,0.295,33.888,12.273,38.621,22.435c0.12,0.252,0.463,0.717,0.766,1.12
			c0.597,0.828,1.09,1.504,1.535,2.291c8.567,15.078,6.226,32.627-5.208,39.126C452.419,254.027,450.069,254.662,447.626,254.662
			L447.626,254.662z M417.583,238.314"/>
		<path fill="#444443" d="M363.148,212.116c-10.474,0-18.678-10.576-18.678-24.069c0-13.503,8.205-24.079,18.678-24.079
			c10.486,0,18.691,10.575,18.691,24.079C381.839,201.54,373.634,212.116,363.148,212.116L363.148,212.116z M363.148,168.105"/>
	</g>
</g>
<text transform="matrix(1 0 0 1 7.6428 452.78)" fill="#444443" font-family="'RobotoCondensed-Light'" font-size="33.585" letter-spacing="3">SAuvetage Accueil &amp; Placement de chiens agés</text>
<line fill="none" stroke="#444443" stroke-width="0.5" stroke-miterlimit="10" x1="7.641" y1="407.202" x2="831.951" y2="407.202"/>
</svg>
